<?xml version="1.0" encoding="UTF-8"?>
<!DOCTYPE svg PUBLIC "-//W3C//DTD SVG 1.1//EN" "http://www.w3.org/Graphics/SVG/1.1/DTD/svg11.dtd">
<!-- Creator: CorelDRAW -->
<svg xmlns="http://www.w3.org/2000/svg" xml:space="preserve" width="201.962mm" height="181.515mm" version="1.1" style="shape-rendering:geometricPrecision; text-rendering:geometricPrecision; image-rendering:optimizeQuality; fill-rule:evenodd; clip-rule:evenodd"
viewBox="0 0 13520.53 12151.69"
 xmlns:xlink="http://www.w3.org/1999/xlink"
 xmlns:xodm="http://www.corel.com/coreldraw/odm/2003">
 <defs>
  <style type="text/css">
   <![CDATA[
    .fil0 {fill:#21201F}
   ]]>
  </style>
 </defs>
 <g id="Слой_x0020_1">
  <metadata id="CorelCorpID_0Corel-Layer"/>
  <g id="_2979669774880">
   <path class="fil0" d="M5073.92 516.62c232.6,-53.53 1108.89,-17.04 1411.66,-17.01 472.33,0.04 944.75,-1.49 1417.02,-1.33 626.86,0.21 864.99,236.65 1181,613.61l2352.99 3008.27c107.53,137.29 201.52,255.7 309.35,399.24l156.69 197.96c66.33,129.6 22.04,2846.43 23.59,3197.24 1.44,324.2 -49.47,180.77 -278.9,461.32l-1842.46 1724.02c-238.29,209.65 -367.54,384.28 -723.04,694.03 -72.13,62.86 -116.35,127.64 -183.45,194.24l-547.94 514.37c-362.26,310.96 -474.45,326.18 -1085.49,327.83 -465.4,1.27 -980.34,22.75 -1440.3,-5.9 -405.14,-25.25 -615.01,-257.88 -883.82,-523.39 -74.51,-73.6 -122.43,-110.63 -200.99,-177.23l-538.97 -523.57c-69.22,-61.36 -118.94,-105.13 -186.46,-167.95 -72.08,-67.07 -99.04,-108.77 -169.58,-184.38 -121.89,-130.64 -249.25,-234.2 -362.81,-345.82 -134.21,-131.92 -233.41,-206.24 -371.38,-360.49l-366.42 -342.01c-56.98,-58.79 -126.46,-106.86 -191.34,-163.59 -70.81,-61.91 -102.34,-116.49 -176.05,-177.55 -143.46,-118.83 -238.57,-190.37 -365.54,-343.2l-376.37 -355.65c-66.04,-60.3 -129.67,-102.35 -191.63,-163.31l-546.44 -515.74c-284.47,-297.8 -587.99,-520.48 -475.66,-907.26 52.2,-179.76 873.54,-1269.14 1045.62,-1458.33 249.43,-274.23 4.3,-301.09 190.01,-517.94 320.18,-373.9 476.61,-603.32 769.58,-1002 535.08,-728.14 1299.31,-1775.24 1841.21,-2457.14 190.19,-239.34 392.34,-526.05 806.34,-621.32zm7144.8 4535.73c25.12,21.2 22.04,15.34 53.23,50.46l752.81 995.31c443.05,552.78 113.94,867.63 -183.99,1180.44 -121.2,127.24 -488.5,503.37 -623.85,586.35l1.8 -2812.56zm-12218.01 1539.21c19.51,554.55 404.76,844.31 685.58,1122.66 37.13,36.8 64.92,52.65 105.85,83.7l1765.26 1659.29c197.61,209.92 109.99,108.56 305.86,284.61 72.26,64.94 122.06,140.46 192.66,208.5 271.25,261.38 557.91,509.95 834.05,772.46 212.29,201.8 354.67,362.74 615.06,589.1 279.35,242.84 660.01,759.96 1184.82,817.27 449.21,49.05 1102.53,2.47 1575.09,4.98 951.74,5.05 966.83,-116.97 1641.51,-759.95 142.97,-136.25 266.74,-258.52 411.84,-391.29l196.65 -204.5c219.74,-223.54 614.09,-547.78 817.63,-788.5l2698.47 -2520.86c347.99,-302.15 575.88,-582.35 458.2,-1128.23 -68.65,-318.46 -559.96,-814.34 -826.46,-1155.7 -57.92,-74.2 -118.37,-159.02 -177.71,-223.85 -254.64,-278.15 -491.81,-634.26 -709.75,-896.51l-532.38 -671.88c-53.34,-67.29 -111.57,-139.92 -175.91,-225.52l-1768.33 -2246.49c-215.78,-285.55 -491.1,-623.98 -805.76,-800.03 -214.9,-120.24 -419.28,-109.91 -684.8,-108.41 -527.38,2.97 -1054.94,1.46 -1582.34,1.45 -479.57,-0.01 -1047.56,-80.22 -1449.02,145.55 -168.68,94.86 -324.98,244.13 -421.54,381.37 -112.81,160.32 -234.57,309.27 -341.26,461.65l-1208.28 1602.28c-66.56,84.89 -105.13,144.71 -174.05,227.38 -130.13,156.1 -222.48,291.37 -344.54,458.69 -116.18,159.28 -228.41,295.13 -347.91,454.65 -109.16,145.73 -223.1,305.83 -345.06,458.11 -346.1,432.17 -698.43,956.27 -1027.81,1380.95 -349.08,450.07 -580.91,572.21 -565.61,1007.08z"/>
   <path class="fil0" d="M10343.18 6520.71c-182.15,1935.39 -1927,3618.87 -4137.9,3275.01 -2196.6,-341.63 -3310.5,-2261.41 -3014.41,-4367.46 151.33,-1076.4 514.8,-1795.65 1252.66,-2484.53 726.11,-677.9 1841.69,-990.29 2852.04,-795.02 1809.52,349.71 3256.1,2156.78 3047.61,4372zm-4104.08 -4678.21c-1647.06,180.64 -2881.81,1406.51 -3259.57,2825.79 -309.4,1162.45 -251.6,2325.19 283.05,3398.54 423.46,850.13 1267.28,1571.16 2186.77,1878.1 2821.29,941.81 5577.89,-1359.41 5181.77,-4449.08 -257.65,-2009.56 -2103.05,-3904.4 -4392.03,-3653.35z"/>
   <path class="fil0" d="M8912.97 4551.6c181.39,-82.29 447.2,-162.01 511.05,-345.37l-885.59 -261.91c-445.69,-117.6 -598.86,-247.57 -858.63,-103.12 -113,62.84 -1288.81,789.93 -1387.17,884.61 48.13,868.55 -92.81,1160.11 591.8,1440.08l-198.14 -27.45c31.52,204.64 374.58,1224.94 464.63,1318.02l103.5 -413.59c4.66,97.04 -36.7,235.19 -51.76,335.43 -18.14,120.74 -2.32,281.71 -21.35,365.47 94.39,-60.49 -4.98,-65.93 107.26,-105.33 191.8,1.08 383.34,6.63 571.77,-22.46 174.16,-26.88 273.51,-121.19 407.61,-166.33 -130.08,56.73 -699.29,509.95 -870.94,643.52 -240.3,187 -435.52,297.59 -628.91,504.65 -110.35,118.16 -70.17,132.49 -70.25,313.64 230.38,-142.13 415,-305.83 633.48,-458.33 119.42,-83.36 199.24,-142.57 317.56,-225.86 282.2,-198.65 1316.65,-1067.33 1568.26,-1120.79l-651.42 478.48c-503.69,406.09 -1051.61,771.8 -1572.16,1167.57 -195.69,148.77 -272.39,148.89 -271.59,271.59 131.18,83.76 402.25,115.66 528.38,32.9 353.17,-231.7 775.51,-502.66 1105.62,-760.19 238.51,-186.08 480.73,-354.26 720.87,-530.81 345.74,-254.21 543.1,-301.34 542.16,-700.52 -105.57,-76.33 -340.07,-161.23 -512.97,-155.99 -169.86,5.15 -327.04,151.02 -420.29,248.13 -4.87,-3 -11.43,-7.18 -14.69,-8.86l-165.42 -52.79c-259.32,-51.84 -1034.66,-236.42 -1204.02,-302.47 36.3,-64.69 35.36,24.22 55.75,-46.71 2.91,-10.1 13.21,-8.62 19.37,-13.53 -34.15,-130.93 -58.32,-173.34 -52.16,-317.48 113.84,-51.7 236.69,-110.09 337.38,-202.1 -91.83,-79.11 -267.85,-96.79 -393.34,-358.01 -134.55,-280.09 -28.64,-395.18 115.96,-539.43 -66.74,-47.24 -103.7,-35.44 -182.75,-78.3 -43.2,-23.42 -91.7,-68.06 -145.81,-91.45 -143.4,-62.01 -49.33,23.36 -239.9,-89.26l-87.05 -33.11c-4.52,-1.31 -16.09,2.76 -19.39,-4.79 -3.32,-7.59 -13.36,-2.07 -19.51,-4.71 267.29,-72.75 1122.22,-703.29 1324.33,-705.83l-164.62 84.95c143.25,87.28 839.37,186.48 839.37,186.48 0,0 0,0 0,0 0,0 0,0 0,0 0.16,-0.16 114.5,14.01 223.73,-28.61 0,0 0,0 0,0 0,0 0,0 0,0z"/>
   <path class="fil0" d="M4265.55 7016.51l-139.5 96.57c-50.02,33 -104.47,60.57 -138.29,92.51 38.63,111.01 3.94,103.87 125.95,150.41 115.33,182.89 839.52,172.55 923.92,65.65 0,0 0,0 0,0 15.71,-11.5 12.46,0 0,0 98.76,-76.69 248.55,-103.4 375.97,-153.86l353.51 -120.81c4.05,-1.86 13.7,-1.93 16.57,-9.77 2.88,-7.83 11.36,-6.15 16.19,-10.34 -53.84,-84.16 -32.01,-97.04 -136.71,-121.39 -77.57,-18.04 -385.74,-47.11 -642.06,-107.33 -600.64,-141.13 -400.65,29.33 -755.55,118.36z"/>
   <path class="fil0" d="M5442.37 6320.2c16.17,170.34 413.94,815.84 594.49,1003.65 58.87,-28.3 112.27,-80.95 184.29,-122.18 63.12,-36.13 123.58,-66.15 193.01,-91.17 142.9,-51.48 332.99,-88.77 498.15,-92.41 -225.8,-527.69 -146.83,-817.44 -462.52,-1029.87 -118.74,-79.9 -124.05,-59.88 -265.86,-6.2 -308.59,116.82 -469.78,215.38 -741.57,338.17z"/>
   <path class="fil0" d="M5305.18 6289.48c112.02,34.74 797.5,-372.28 1009.35,-415.31 -69.47,-363.93 -55.47,-747.59 -87.51,-1108.66 -164.11,1.13 -739.4,285.17 -870.01,365.89 -140.89,87.08 -93.17,371.46 -91.74,539.1l39.91 618.99z"/>
   <path class="fil0" d="M4091.69 5542.57c111.99,-47.75 293.16,-11.14 292.77,-9.98 0,0 -214.7,15.69 0,0 97.15,-7.1 186.48,-31.04 282.69,-28.73 179.51,4.32 354.09,78.11 537.13,78.12l12.75 -409.92c-367.14,-63.17 -460.9,-122.16 -802.61,56.61 -227.27,118.9 -421.82,199.01 -660.21,307.07 -3.05,238.19 2.16,217.92 2.16,217.92 -0.83,-0.82 0,0 89.95,-13.45 92.81,-70.88 146.49,-137.94 245.37,-197.63z"/>
   <path class="fil0" d="M1684.27 5788.57l8.39 2090.65c85.41,56.48 126.49,75.01 228,74.1 39.76,-565.81 12.89,-2619.54 10.44,-3368.26 -309.33,-37.15 -242.14,235.92 -244.39,471.39 -2.32,244.33 -2.16,487.85 -2.44,732.13z"/>
   <path class="fil0" d="M6232.86 4624.88c170.95,12.15 1152.96,-659.06 1368.31,-790.81 263.96,-161.48 214.19,-112.38 792.21,49.43 199.01,55.72 697,222.76 857.36,230.88 -179.21,-136.47 -557.01,-275.35 -799.88,-362.4 -138.36,-49.59 -305.21,-97.49 -456.08,-135.38 -289.24,-72.65 -284.36,15.05 -500.31,35.35 -111.46,10.48 -101.88,-34.5 -218.35,20.95 -45.21,21.52 -132.87,81.04 -175.28,109.26l-840.87 624.65c-64.58,75.8 -56.23,111.42 -27.11,218.06z"/>
   <path class="fil0" d="M6089.16 7369.63c28.67,105.73 56.85,130.67 100.27,221.86l-77.99 -59.74c-72.31,-72.42 -51.95,-103.71 -180.56,-152.83l10.7 158.98c80.15,26.93 104.98,15.95 179.29,60.38 165.97,99.23 59.82,5.38 109.62,27.48 399.88,310.66 370.32,373.22 905.47,112.02 5.89,-129.85 -23.11,-252.55 -72.19,-354.83l-106.11 -224.03c-144.71,-210.52 -764.62,59.83 -868.5,210.71z"/>
   <path class="fil0" d="M3530.29 5535.7c348.2,-10.2 1054.62,-482.12 1183.21,-485.85 154.92,-4.5 328.17,75.6 496.77,78.49l93.7 -115.42c-841.2,-198.4 -822.81,-188.53 -1474.78,150.01 -192.01,99.71 -279.33,105.82 -298.9,372.77z"/>
   <path class="fil0" d="M4265.55 7016.51l77.12 -63.87c398.13,-243.62 336.68,-192.32 565.76,-128.31 227.9,63.68 552.02,145.92 792.28,135.97 -70.32,-271.38 -210.14,-292.69 -371.98,-324.09 -123.92,-24.05 -488.28,-111.02 -588.08,-94.55 -63.39,10.46 -401.7,192.72 -457.6,232.38 -197.06,139.83 -323.95,217.82 -316.1,362.19 130.88,-22.87 192.58,-92.37 298.6,-119.71z"/>
   <path class="fil0" d="M7502.86 5378.15c-335.61,114 4.61,903.29 327.21,693.72 311.31,-202.24 -54.44,-786.38 -327.21,-693.72z"/>
  </g>
 </g>
</svg>
