<?xml version="1.0" encoding="UTF-8"?>
<!DOCTYPE svg PUBLIC "-//W3C//DTD SVG 1.1//EN" "http://www.w3.org/Graphics/SVG/1.1/DTD/svg11.dtd">
<!-- Creator: CorelDRAW -->
<svg xmlns="http://www.w3.org/2000/svg" xml:space="preserve" width="130.697mm" height="105.196mm" version="1.1" style="shape-rendering:geometricPrecision; text-rendering:geometricPrecision; image-rendering:optimizeQuality; fill-rule:evenodd; clip-rule:evenodd"
viewBox="0 0 13228.61 10647.45"
 xmlns:xlink="http://www.w3.org/1999/xlink"
 xmlns:xodm="http://www.corel.com/coreldraw/odm/2003">
 <defs>
  <style type="text/css">
   <![CDATA[
    .fil0 {fill:#252C38}
    .fil1 {fill:#383737}
    .fil2 {fill:#E2D7C1}
   ]]>
  </style>
 </defs>
 <g id="Слой_x0020_1">
  <metadata id="CorelCorpID_0Corel-Layer"/>
  <g id="_2470704009232">
   <path class="fil0" d="M10520.97 8547.2c37.01,-108.21 102.94,-233.64 90.22,-341.98 -14.47,-123.35 -37.63,-306.49 -11.74,-427.19 59.65,9.55 210.43,86.79 272.29,121.34 76.04,42.47 142.24,186.04 105.71,268.65 -30.13,68.15 -143.71,190.55 -188.73,223.1 -76.95,55.65 -149.81,127.24 -267.76,156.08zm-143.76 -883.15c77.8,7.59 104.43,21.32 151.7,68.84 15.5,196.74 53.13,657.21 -43.82,810.72 -46.42,-39.6 -85.55,-138.23 -115.57,-198.82 -37.57,-75.81 -74.03,-134.59 -104.48,-208.35 -39.85,-96.5 83.18,-353.31 112.17,-472.38zm-1037.97 125.6c59.51,-52.2 228.69,-91.76 322.81,-91.17 23.15,38.83 21.7,90.64 24.39,134.53 10.62,173.19 14.16,280.65 -20.45,457 -124.81,-45.94 -275.14,-391.13 -326.75,-500.35zm728.95 676.26c4.34,-3.24 19.4,15.92 51.39,-61.85l85.94 -228.11c59.05,81.68 204.02,289.45 201.53,414.64 -88.42,65.87 -216.38,45.7 -304.6,4.6 -228.28,-106.36 -258.88,-653.6 -223.86,-887.55 105.21,51.65 305.4,109.51 379.45,7.15 10.72,35.98 -70.42,281.42 -86.51,355.13 -28.99,132.79 -82.94,276.47 -103.34,396zm-637.88 -746.56c12.53,-79.09 80.28,-220.72 115.32,-269.73 38.73,28.72 60.19,54.51 102.06,84.69 47.63,34.34 73.11,45.67 114.6,70.33 -86.28,54.06 -208.61,93.64 -331.98,114.71zm1504.13 -143.18l312.35 -43.4c14.48,96.72 -30.8,177.74 -65.78,244.35l-246.57 -200.95zm-7601.33 -454.5c82.91,91.46 89.72,232.03 90.96,370.08 4.03,448.06 -339.55,166.47 -276.83,-116.64 12.87,-58.16 41.06,-118.38 67.01,-158.28 31.97,-49.16 55.72,-87.88 118.86,-95.16zm7250.74 314.8c6.68,-67.4 37.2,-146.16 71.52,-186.15 61.34,83.81 26.32,110.6 54.06,202.59 20.83,69.04 90.36,76.39 154.54,114.46 64.14,38.06 235.71,212.95 259.94,280.59 -100.53,46.36 -157.45,52.77 -201.59,-69.26 -14.54,-40.2 -25.85,-84.08 -43.27,-127.35 -29.81,-74.04 -9.28,-77.1 -86.68,-95.47 22.81,96.4 74.24,216.22 100.5,327.27 -126.57,-52.07 -440.54,-182.73 -351.54,-319.69 53.84,-82.84 104.1,-50.88 157.93,-86.02l-115.4 -40.98zm-5319.89 367.29c16.36,-132.6 47.03,-244.79 104.8,-348.29 187.91,-336.78 272.94,-235.77 256.38,-50.99 -17.33,193.28 -61.27,236.11 -193.95,297.48 -123.35,57.07 -113.05,75.28 -167.23,101.8zm5565.31 -397.26c19.79,-11.65 -6.5,0.7 23.46,-3.89 3.26,-0.5 13.98,-1.08 17.51,-1.89 45.3,-10.42 64.48,-40.63 95.2,-80.55 71.91,30.98 100.35,88.02 150.54,143.09 -33.84,67.07 -127.32,114.43 -234.29,81.79 -44.63,-45.9 -29.19,-66.43 -52.42,-138.55zm-9817.14 -93.27c76.72,81.64 74.1,38.77 127.26,170.94 35.84,89.11 176.23,311.26 232.87,393.43 21.09,30.59 84.78,107.59 124.42,118 78.34,20.57 60.2,-6.38 71.61,-14.27 -87.03,-21.75 -120.76,-54.53 -158.43,-127.74 -33.92,-65.9 -74.28,-137.26 -92.66,-206.35 202.56,163.69 122.96,410.17 455.97,281.48l-39.06 36.33c-132.51,92.95 -440.85,147.45 -559.71,25.12 -55.29,-56.91 -162.29,-229.69 -178.1,-296.66l234.3 267.73c35.3,43.8 4.48,24.29 65.31,46.76 56.07,20.72 97.32,36.07 159.16,28.97 -51.61,-39.87 -111.34,-78 -160.05,-124.6 -186.79,-178.71 -215.1,-513.39 -282.89,-599.14zm4976.59 277.75c35.55,29.62 43.27,12.48 72.76,60.04l-88.96 -10.95c-22.93,53.08 -115.14,139.89 -155.78,177.96 67.43,37.12 -50.4,-5.73 22.35,5.87 15.38,2.46 9.9,-2.06 33.06,3.07 -53.9,31.29 -19.97,16.36 -21.69,94.95 45.52,-47.49 47.87,-75.79 112.08,-105.89 -5.8,92.54 -0.38,101.25 -18.33,186.48 31.52,46.02 16.48,2.94 43.43,56.76 -36.2,79.33 -60.47,27.8 -81.46,122.66 -8.04,36.33 25.22,3.29 -13.66,41.4 -50.93,38.38 -778.51,32.52 -866.53,-11.76 -27.71,-131.61 100.2,-286.81 179.71,-323.79 115.45,-53.68 330,-14.04 468.56,-40.1 -18.14,-24.8 -32.86,-41.2 -42.89,-73.7 243.84,-6.61 223.25,-83.85 366.97,-369.87 36.87,-73.39 68.11,-188.07 95.14,-273.89l74.42 -208.98c38.68,-46.29 -2.53,-26.97 80.27,-27 -10.97,106.82 -210.44,576.69 -259.46,696.75zm-693.74 -702.68l167.14 63.4c11.65,28.02 34.32,115.29 43.11,142.61l-58.67 25.84c-181.34,64.96 -285.73,83.23 -354.91,299.39 -45.72,142.84 -98.99,464.09 -181.17,554.67 30.34,-118.03 11.2,-86.29 -7.56,-108.32 -30.04,105.16 -277.82,417.27 -377.8,487.88 -11.74,-27.93 3.71,7.47 -2.29,-19.02 -0.41,-1.85 -1.32,-6.59 -1.85,-8.69l-10.05 -32 -147.05 15.09c224.27,3.73 180.58,-100.05 308.47,-272.98 73.8,-99.78 187.82,-234.75 129.12,-351.63 -6.5,-12.96 -10.06,-17.76 -17.54,-28.23 -12.39,-17.34 -13.17,-17.33 -23.3,-28.11 -44.06,203.35 -163.14,302.97 -263.89,455.99l60.27 17.65c-67.47,101.52 -73.09,149.58 -231.54,156.27 49.68,-104.17 336.24,-366.34 410.87,-640 30.03,-110.14 86.3,-285.85 130.37,-394.61 26.08,-64.36 42.81,-123.95 93.54,-162.18 73.2,-55.17 136.59,-72.24 183.51,4.12 79.09,-6.85 155.04,-9.53 220.12,14.39 -29.17,15.25 -326.59,38.28 -384.55,99.8 -44.2,46.91 -41.25,116.69 -59,182.14 -17.47,64.41 -72.48,110.66 -54.67,152.85 54.46,-38.04 49.82,-111.38 96.73,-149.38l4.61 382.28c111.32,-218.97 -43.09,-467.95 448.61,-641.17 -94.48,-182.82 -125.17,-83.26 -120.65,-218.04zm-1675.32 362.46c103.46,-182.11 119.95,-463.53 380.86,-399.31 372.33,91.64 338.54,671.65 230.78,984.56 -123.13,357.55 -396.16,442.93 -564.92,117.12 -134.74,-260.11 -28.81,-660.53 -216.74,-876.02 16.88,-51.71 -13.96,7.99 54.48,-41.48 -261.37,-23.04 -128.32,40.72 -256.15,90.25 -50.81,-76.76 4.77,-119.37 24.18,-221.81 97.83,25.33 47.9,41.13 99.65,68.99 39.3,21.14 69.36,5.1 107.78,-38 -65.96,-1.68 -85.62,10.62 -128.92,-14.5 24.11,-51.32 60.01,-31.83 59.03,-102.61 38.42,62.12 86.39,82.7 89.97,179.92 33.89,-39.11 6.14,-47.12 62.94,-124.4 53.96,-0.14 144.04,-14.09 185.73,22.18 -47.92,57.27 -45.31,6.18 -118.97,-3.94 -69.64,-9.57 -100.12,26.07 -106.93,88.93 -13.44,124.04 48.82,85.92 97.23,270.12zm7390.48 -18.27c-49.05,20.95 -39.62,43.6 -72.78,73.48 -84.58,76.21 -210.28,-55.82 -214.36,-127.2 -3.72,-64.89 -2.09,-19.66 19.31,-66.47 35.84,-78.4 57.59,-235.72 131.93,-308.96 35.65,34.67 27.65,18.26 35.6,66.08 -29.35,30.86 -79.88,61.09 -118.76,94.04 58.88,111.38 37.12,64.71 104.89,131.09 104.16,102.04 20.14,103.89 138.83,108.92 -46.7,-94.11 -114.6,-79.11 -127.94,-208.5 27.37,-34.87 117,-120.53 180.47,-106.43 49.77,11.04 158.3,78.21 183.2,120.62 -26.91,50.45 -58.51,76.1 -96.02,108.26 -95.87,82.19 -75.42,20.45 -101.61,94.37 109.34,-33.44 145.01,-134.02 268.17,-157.72 3.82,134.44 -42.76,314.66 -70.81,442.29 -99.56,-31.69 -160.7,-167.14 -243.47,-250.46l-16.64 -13.42zm-7775.91 1185.26c-51.91,-0.98 -138.1,5.11 -184.54,-1.55 -64.22,-9.21 -73.79,-37.38 -114.93,-71.98l-626.64 -466.02c-152.77,-94.04 -320.82,-168.15 -475,-263.16 -155.15,-95.61 -298.2,-182.35 -466.74,-271.03 -131.25,-69.07 -885.56,-458.82 -939.23,-517.3 18.53,-36.77 81.1,-126.46 110.47,-164.65 179.79,26.49 499.9,256.33 642.48,357.44 188.21,133.49 405.7,248.25 604.53,374.04 207.27,131.1 414.03,241.13 610.39,370.44 103.55,68.21 185.47,125.73 302.03,193.73 274.76,160.28 109.28,192.09 242.91,243.41 -1.49,-68.18 3.05,-46.94 -28.66,-92.12 33.46,29.31 54.96,46.98 97.03,63.65 -5.6,51 -17.81,51.97 1.03,85.79l82.54 -61.17c40.49,20.24 69.68,58.34 124.08,92.39 183.68,114.99 256.41,88.23 518.51,122.62 376.43,49.39 431.21,68.37 766.41,5.97 -92.69,248.05 -938.03,5.75 -1266.66,-0.51zm3455.86 -1740.15c10.45,-73.07 108.62,-458.88 141.46,-499.97 59.76,232.01 -295.65,962.67 -346,1259.84 -15.89,93.84 -13.71,424.52 -44.73,472.04 -57.29,-57.9 -24.69,-228.49 -11,-314.15 7.79,-48.79 22.45,-104.03 36.13,-150.61 25.24,-85.96 19.16,-55.93 13.62,-142.42 -7.61,-118.99 140.64,-379.92 141.07,-560.8 -26.78,-20.52 -55.18,-38.46 -94.69,-51.61 -19.79,13.01 -6.72,4.24 -26.09,21.66 -158.64,142.64 -139.34,70.19 -274.76,45.21 -47.29,-8.73 -78.15,0.16 -129.33,-14.66 -235.86,-68.29 -221.85,-407.24 104.06,-442.4 141.26,-15.24 117.38,28.89 190.68,92.14 19.29,16.64 13.4,6.56 38.6,32.9 58.72,61.38 29.83,74.63 87.37,125.7 16.4,14.55 25.02,16.96 40.42,30.16 82.01,70.34 -3.84,89.71 133.18,96.98zm3923.05 -477.29c12.23,-6.24 526.33,-165.34 543.89,-168.47l-119.84 96.12c-61.12,51.66 -267.92,259.79 -292.09,332.31l-83.91 -124.11c-23.34,-44.78 -41.2,-83.51 -48.06,-135.85zm-6681.96 -59.95c76.04,-28.87 68.15,-44.67 169.09,-50.64 -9.82,4.45 -38.3,10.99 -48.57,17.16 -73.63,44.21 -28.3,4.1 -49.83,64.98 115.04,-10.83 152.74,-44.15 276.51,-17.71 132.7,28.34 140.32,-23.01 221.82,16.99 21.16,10.38 21.36,12.79 32.31,21.35 -112.36,-13.48 -169.01,-34.02 -291.22,-30.52 -103.27,2.95 -202.54,13.14 -305.82,16.71 -19.56,58.5 -68.04,99.38 -119.88,117.01 -41.19,-44.68 -59.9,-88.23 -62.17,-174.16 -517.01,120.91 -507.24,45.45 -751.7,555.7 -45.15,94.25 -122.98,189.47 -153.29,292.29 39.09,-34.96 51.17,-69.04 84.44,-119.96 29.27,-44.8 51.39,-73.85 78.54,-119.68 209.3,-353.27 150.82,-475.53 712.66,-526.03 -28.4,54.79 23.25,21.79 -59.48,44.34 -96.49,26.3 -362.34,65.75 -430.16,180.02 -121.96,205.49 127.79,385.75 -188.84,461.21 21.16,-79.25 84.71,-94.5 136.06,-164.76 -64.04,20.12 -35.13,20.91 -88.74,59.24 51.78,-61.25 44.06,-5.61 53.21,-84.75 2.46,-21.26 4.49,-41.91 4.44,-45.03 -0.27,-18.08 7.41,4.43 -3.68,-30.74 -13.47,-42.69 14.49,2.32 -18.49,-36.01 -59.94,151.98 -221.97,290.75 -266.94,467.45 -38.47,-18.62 -9.93,-25.1 -47.65,-41.93 -70.72,230.26 34.03,636.22 -62.51,817.78 -23.85,-34.08 -21.75,-112.33 -23.19,-154.51 -1.93,-56.77 -0.94,-113.55 -1,-170.35 -0.64,-541.08 6.75,-415.65 232.03,-813.15 74.73,-131.85 146.38,-356.65 253.17,-428.52 101.22,-68.11 396.13,-154.77 541.65,-152.3l12.4 -197.13c-169.77,-10.33 -449.17,57.65 -605.91,96.94 263.73,-157.32 425.11,-93.48 579.99,-129.25 88.02,-20.33 29.67,-7.52 121,-1.18 78.62,5.45 194.55,-40.72 249.41,6.87l-262.48 17.93c60.33,101.53 51.92,126.66 82.8,234.31zm4691 1422.37c4.46,-304.25 -110.16,-444.25 -45.57,-956.34 40.75,-323.03 124.79,-558.93 256.49,-791.41 42.52,57.42 -11.19,148.44 -36.17,272.6 -18.04,89.71 -40.98,181.77 -53.47,272.72 -99.31,723.19 3.28,1308.21 274.08,2001.85 94.6,242.31 188.64,381.76 351.48,501.26 275.87,202.44 440.68,167.3 621.41,230.57 -782.25,5.9 -1186.46,-730.45 -1343.58,-1395.84 -34.12,-144.48 -114.08,-262.28 -102.94,-510.12l78.26 374.71zm4492.24 -1414.41c-0.32,3.46 -1.01,7.27 -1.14,10.66 -0.13,3.34 -0.26,7.24 -0.15,10.56 0.14,4.46 2.18,17.09 2.85,21.62 15.31,102.03 57.09,442.42 20.72,518.38 -52.74,27.96 -202.35,23.3 -254.68,1.63 53.61,-46.56 140.03,-39.33 207.18,-91.85 31.65,-146.21 6.76,-317.42 -20.59,-453.38 -169.18,45.62 -289.51,112.72 -489.67,91.44l42.29 -21.15c10.95,-4.42 20.66,-7.21 32.86,-11.01 101.73,-31.68 95.53,-17.31 202.19,-76.6l-519.98 127.4c88.49,-22.44 261.82,-92.75 379.88,-128.03 80.4,-24.03 368.63,-88.8 373.59,-151.01l1.94 -35.21c-0.02,-0.54 -3.73,-31.88 -4.39,-36.09 -42.51,-274.61 -73.98,-243.6 -345.91,-264.33 -608.18,-46.39 -339.01,16.17 -586.6,90.85 26.27,-54.1 -7.89,-16.4 48.46,-47.55l139.52 -73.22c112.5,-55.71 103.44,-27.1 213.78,-13.56 93.13,11.42 203.47,-3.4 298.36,-6.81 213.47,-7.69 200.16,15.45 215.24,76.21 16.99,68.53 38.19,177.99 46.39,251.41 13.8,123.58 6.23,121.86 -2.13,209.69zm-3716.62 630.16c-15.31,-132.86 -70.56,-141.04 16.32,-216 39.66,-34.21 120.98,-117.41 164.22,-125.77 241.8,-46.76 501.82,685.3 74.58,625.85 -184.55,-25.69 -248.91,-148.41 -304.57,-264.26l-234.18 -617.32c-58.82,-267.23 -294.54,-739.4 -396.3,-996.38 120.22,120.91 395.86,899.64 510.72,1122.82 130.3,253.2 148.96,521.78 215.08,607.93 62.8,81.83 212.35,89.35 253.6,-27.05 44.24,-124.83 -28.39,-249.25 -156.45,-212.19 -56.24,106.23 -9.55,145.28 -0.79,187.69 16.2,78.36 7.79,31.34 -5.69,55.82 -126.06,-98.11 -1.17,-322.28 118.36,-285.9 51.14,15.57 98.8,85.58 103.24,165.09 4.43,79.36 -33.62,135.33 -62.71,180.63 167.07,-102.8 116.83,-264.37 -3.68,-366.87 -56.47,-48.02 -167.59,-61.29 -218.1,-7.87 -33.1,35.01 0.72,8.52 -26.99,59.88 -1.16,2.17 -3.76,5.62 -5.04,7.85l-41.61 106.05zm959.58 -1083.41c-81.95,-170.89 -66.38,-596.62 -25.08,-767.42 88.83,2.32 256.11,35.26 326.92,76.66 177.21,103.58 -14.98,393.9 -103.14,500.7 -31.31,37.91 -59.56,69.7 -92.7,105.88l-72.96 70.32c-31.9,19.74 15.76,-0.12 -33.04,13.85zm-744.84 258.78c-23.76,-111.96 49.95,-16.09 -18.16,-139.31 -88.88,-160.8 159.03,-521.82 252.02,-636.04 59.6,-73.2 92.74,-146.68 187.32,-168.93 54.85,41.37 87.58,98.5 132.16,161.89 48.69,69.26 70.78,114.12 64.32,220.12l-62.81 362.87c-25.81,102.95 -41.51,81.7 -60.91,92.73l-30.19 -200.31c4.62,1.03 15,-26.75 2.96,7.12 -0.34,0.99 10.22,-3.87 -3.69,5.49 -39.07,26.24 28.21,22.12 -19.75,1.59 -17.8,-104.56 -3.04,-178.25 1.78,-283.29 14.62,-319.05 25.59,-179.38 54.36,-252l-77.79 2.79c-22.67,45.81 -104.3,318.7 -107.78,381.77 61.03,-60.93 37.71,-39.73 55.53,-33.76 19.29,70.69 27.05,141.04 50.73,212.9 26.75,81.22 50.99,114.71 62.75,209 -308.16,-61.79 -181.44,-48.09 -306.09,6.09 -7.83,-153.62 27.67,-306.44 52.87,-441.9 -16.63,49.81 -55.1,142.46 -56.04,191.76 -1.52,80.04 -2.74,164.69 -14.7,247.86 -49.15,22.4 -124.83,51.12 -158.88,51.54zm-5782.2 -845.89c288.38,-38.59 410.95,123.74 351.93,-144.91 133.71,103.97 168.3,364.35 35.35,568.22l-30.29 -79.98c-71.97,129.07 -177.01,131.58 -268.5,-21.3 -48.21,-80.56 -113.1,-219.93 -88.48,-322.04zm6248.15 -137.28c85.68,-12.05 139.34,-43.29 238.13,-47.48 -69.49,198.37 -22.21,205.34 -72.76,279.09 -3.26,-2.32 -6.99,-5.98 -8.98,-7.94l-42.52 -50.03c-50.68,-70.08 -87.18,-102.33 -113.87,-173.65zm-1111.77 2667.11c8.44,12.34 155.95,382.58 243.3,532.74 119.57,205.54 213.24,289.02 383.04,411.9 216.13,156.4 600.15,363.49 889.42,183.79 93.04,-57.79 160.83,-118.4 208.05,-207 -197.21,107.85 -228.27,223.05 -546.61,167.63 -100.71,-17.53 -464.24,-120.13 -429.39,-276.62 0.52,-2.29 2.29,-7.17 4.28,-10.31 29.5,18.03 17.4,27.05 31.72,55.66 16.11,32.17 55.71,54.17 85.98,70.39 79.74,42.73 309.94,107.74 406.24,103.55 50.98,-2.22 43.3,-14.65 97.88,-31.42 146.02,-44.88 292.17,-7.84 457.49,-180.72 247.09,-258.35 435.09,-675.42 512.21,-1017.63 32.52,-144.32 51.7,-303.77 60.03,-458.95 3.97,-73.85 7.17,-184.38 -1.29,-256.55 -19.21,-163.74 -26.74,-50.23 -125.85,-76.4 12.23,-49.98 49.52,-47.77 49.77,-120.99 0.17,-50.37 -12.65,-117.83 -14.01,-176.09l-74.6 60.32c-3.21,1.73 -7.4,3.77 -10.36,5.31 -3.02,1.59 -8.08,4.17 -10.57,5.46 -2.52,1.31 -7.25,3.45 -10.7,5.51l52.34 6.13c21.94,-10.65 -5.54,-8.81 40.08,-38.98 0.47,24.3 3.19,35.12 -2.6,58.49l-53.78 115.49c-82.53,-13.11 -61.17,-55.26 -155.42,26.48 14.88,87.15 78.83,87.16 172.39,113.83 116.68,33.27 110.67,57.78 105.72,184.47 -45.98,-0.72 -22.88,3.5 -66.95,-24.38 -22.22,-14.06 -32.74,-21.97 -57.72,-41.72 -41.64,-32.9 -59.34,-56.78 -107.07,-92.04 -61.39,-45.35 -83.23,-29.26 -140.68,-57.37 -39.36,-19.26 -73.45,-67.91 -99.71,-90.48 65.52,15.21 129.67,27.01 191.04,-6.49 46.24,-25.23 106.67,-80.77 125.2,-132.19 -38.38,4.73 -287.13,195.06 -286.91,51.02 0.14,-84.74 66.07,-151.89 124.11,-211.05 27.37,-27.9 70.47,-67.22 103.93,-95.17 34.65,-28.93 87.37,-55.32 113.38,-78.23 -14.46,-61.3 -13.22,-107.63 -90.57,-109.46 -64.73,-1.54 -113.64,27.59 -161.32,48.52 -99.67,43.77 -225.66,65.61 -335.24,92.23 76.53,-176.5 168.91,-242.24 293.12,-587.81 25.09,-69.81 80.53,-164.02 31.44,-203.88 -6.81,10.97 -49.06,98.28 -49.5,99.38l-0.57 -134.85c-53.29,40.96 -50.93,130.21 -78.53,197.61 -64.22,156.83 -125.29,314.32 -205.43,462.84l-66.36 81.92c-109.29,-194.11 -39.07,-232.76 48.2,-397.83l157.52 -268.47c5.98,-10.5 21.07,-37.87 24.23,-47.69l0.15 -61.98 -50.96 69.12c-32.83,56.5 -51.14,50.03 -97.91,129.02 -66.19,111.79 -166.67,275.93 -265.83,339.55l-13.01 -96.2c70.17,-59.24 187.2,-166.07 246.71,-246.91 38.62,-52.45 60.36,-104.31 95.9,-159.1 51.15,-78.88 41.23,-132.73 70.9,-183.65 82.82,31.39 104.18,68.48 162.6,119.57 341.44,298.63 438.55,1075.2 510.89,1489.64 81.65,-329.58 -23.97,-724.49 -130.03,-1018.94 -226.37,-628.45 -742.88,-1075.08 -1418.18,-843.06 -240.19,82.53 -658.82,338.98 -515.94,654.77 33.48,-54.32 63.33,-109.79 101.06,-160.3 40.15,-53.76 75.8,-102.3 109.99,-159.68 44.38,-74.48 227.2,-200.75 325.15,-206 -23.19,24.54 -35.41,46.4 -62.18,71.8 -20.5,19.45 -53.16,41.57 -78.89,62.42 -88.02,71.33 -54.24,102.63 -148.81,278.19 -34.33,63.74 -10.84,31.75 -26.72,87.37 -28.12,98.5 -47.01,95.69 -59.44,222.36 -39.93,-34.09 -45.59,-81.87 -93.9,-102.91 3.06,54.81 124.46,300.17 154.43,403.61 164.05,566.15 321.22,384.82 384.41,749.76 18.36,106.04 -52.34,392.67 -102.56,455.16 -71.66,5.11 -137.41,-21.32 -173.89,-61.85 26.21,-25.3 53.99,-39.82 76.98,-27.5l50.2 -45.76c-176.51,28.24 -288.07,-20.04 -405.35,-31.84 100.69,6.16 245.88,49.89 351.38,9.32 100.48,-38.63 167.06,-98.45 168.25,-230.51 2.28,-253.33 -175.67,-293.17 -278.19,-518.88 -81.71,-179.87 -147.91,-376.64 -230.2,-564.78 -60.76,-138.9 -190.85,-459.79 -176.78,-622.86 89.35,-68.23 152.14,-151.57 255.75,-224.75 98.83,-69.81 198.08,-122.33 332.92,-163.91 207.32,-63.94 601.11,-84.06 807.48,36.25 17.64,10.28 16.49,8.98 27.57,19.66 -51.98,-12.7 -73.25,-22.5 -126.58,-30.11 156.12,70.48 234.14,102.46 358.99,201.72 328.83,261.45 480.8,736.55 547.83,1152.02 117.96,731.21 38.84,1317.87 -265.15,1915.28 -195.75,384.69 -687.34,1078.5 -1346.95,848.76 -698.04,-243.12 -1114.85,-1179.73 -902.53,-1263.76zm-4911.77 -2017.01c1.56,2.65 3.48,6.36 4.99,9.1 30.88,56.02 30.8,86.26 92.63,118.86l36.13 -131.47c23.62,58.97 -20.25,96.89 24.22,157.6 68.63,-35.04 31.96,-71.71 59.75,-139.38 28.6,-69.7 43.04,-19.02 96.35,-84.97 20.97,44.44 -19.41,2.62 14.19,49.86 62.33,-18.3 29.96,-37.83 97.76,-49.05 -69.36,114.22 -70.87,294.45 -234.23,300.67 143.17,38 157.98,-49.66 215.58,-168.42 51.17,-105.51 58.32,-236.27 58.24,-363.07 -0.09,-157.27 -4.6,-189.03 -90.06,-293.06 41.03,-25.61 37.71,-223.17 -99.98,-307.69 -165.17,-101.39 -173.39,-34.91 -333.66,22.53l96.75 -66.13c100.91,-39.48 158.41,-75.59 218.1,-74.71 236.97,3.49 318.86,137.12 373.75,345.65 76.64,291.13 103.57,670.29 -131.96,894.66 -8.28,-13.83 -12.56,5.22 15.45,-56.29 -48.13,25.58 -20.98,24.23 -38.62,17.5 -25.99,-96.36 5.1,-81.66 11.23,-173.76 -94.4,114.79 -83.93,302.12 -286.43,296.05 -115.69,-3.47 -223.23,-199.25 -223.65,-338.4l23.47 33.92zm-911.66 -777.48c35.54,-82.06 81.55,-68.01 167.09,-97.42 62.91,-21.62 120.91,-39.74 182.9,-58.62 138.81,-42.29 269.24,-60.72 396.21,-92.69l-35.09 70.84c-89.33,-53.51 -68.34,-99.02 -169.86,84.22 -46.29,83.56 -92.85,116.21 -144.63,181.53 -56.74,71.57 -76.68,115.23 -177.16,147.44 -75.55,24.2 -202.5,76.59 -253.15,82.76l67.99 35.83c51.31,23.02 134.63,23.66 198.5,24.94 -45.35,28.78 -30.15,0.12 -75.76,32.88 -42.12,30.26 39.09,-6.16 -19.5,15.15l-46.68 15.92c-17.78,12 1.33,4.68 -22.78,10.67 -101.44,25.19 -80.36,43.77 -113.13,63.03l-241.46 80.67c-101.79,45.77 -208.94,69.32 -323.08,116.08 -101.2,41.46 -206.21,85.23 -309.8,130.68l-605.49 275.65c-107.75,54.29 -538.32,261.76 -629.76,247.22 -10.17,73.84 17.74,-19.4 -0.27,65.24 -74.64,14.1 -297.15,103.28 -345.19,146.69 92.75,-12.11 306.36,-86.35 393.29,-136.11 388.14,-222.19 1483.31,-651.78 1916.71,-779.13 234.79,-68.99 395.58,-194.83 482.61,-176.8 117.24,24.29 165.82,18.39 211.6,-94.67l15.58 -32.74c-2.38,129.01 -4.93,133.21 -102.67,189.35 -139.1,79.89 -95.09,-11.25 -205.59,34.92 -65.36,27.32 -120.21,54.05 -184.05,86.41 -101.78,51.6 -464.73,161.99 -596.41,211.88 -395.34,149.81 -786.99,281.99 -1179.93,437.7 -137.33,54.41 -244.89,106.42 -378.13,161.44 -63.36,26.17 -130.6,44.14 -202.33,65.98 -107.69,32.8 -89.84,58.77 -211.9,43.75 -53.88,-132.94 15.57,-100.53 169.4,-170.9 43.38,-19.85 79.2,-38.76 121.9,-62.15 84.32,-46.18 94.71,-21.72 99.65,-85.78 -58.21,-44.09 -31.5,-4.17 -116.67,18.73 26.79,-53.02 73.63,-73.47 112.57,-98.89 -18.77,-62.15 -67.88,-149.85 -110.61,-194.82 -44.72,45.62 -70.08,159.98 -99.34,226.5 -55.58,-90.3 103.32,-258.78 -5.13,-414.62 -66.47,-95.54 -155.71,-222.4 -264.12,-260.28 -52.72,85.46 -109.57,256.08 -133.91,288.34 6.42,-156.85 59.9,-243.97 68.42,-412.6 22.77,53.46 16.59,88.28 77.34,79.37 33.35,-4.9 19.02,-5.46 35.65,-17.69 -38.97,-30.87 -75.16,-58.51 -111.02,-108.06 8.48,-79.47 23.93,-150.29 91.55,-172.02 47.46,78.83 33.79,255.53 75.59,324.12 10.3,16.9 75.04,82.13 94.34,103.91 30.87,34.82 53.86,68.29 82.95,115.95l218.99 376.39c3.19,8.35 30.4,140.61 33.61,156.17l110.03 -41.56 -52.74 -100.41c43.5,36.12 40.67,67.19 92.34,83.5l-113.32 -153.94c-98.91,-140.26 -166.56,-232.97 -67.41,-345.55 380.61,-432.2 731,-60.21 744.61,106.03 -32.3,-9.17 -18.51,-3.15 -42.31,-26.26 -21.77,-21.15 -12.22,-16.93 -31.14,-39.67 -68.93,-82.78 -125.17,-145.59 -244.13,-162.32 -88.78,-12.49 -155.05,1.33 -222.26,43.27 -57.64,35.98 -121.18,61.68 -160.89,122.49 75.44,-19.18 131.24,-76.65 222.89,-103.93 -58.43,63.16 -117.41,71.84 -189.39,125.33 1.95,2.99 5.07,6.77 6.58,8.43 1.5,1.64 4.86,6.22 6.75,8.16 1.85,1.89 5.02,5.56 7.14,7.53 2.09,1.93 5.48,4.81 7.68,6.66l39.93 25.98c-47.34,57.62 -75.5,82.34 -145.95,18.29 9.69,78.64 156.92,280.51 207.26,320.67 79.27,1.62 419.18,-155.43 508.45,-199.79 106.44,-52.91 377.06,-201.33 472.8,-219.27 -48.51,-122.64 -205.38,-379.62 -289.56,-484.59 -50.66,-63.18 -73.37,-86.57 -118.8,-151.88l249.53 292.14c23.91,37.96 24.85,40.46 51.89,75.78l140.62 232c0.97,-2.24 4.09,6.62 6.78,9.39 23.97,-23.21 30.03,-43.42 54.86,-55 122.3,-56.98 -32.68,49.36 97.53,17.75 110.92,-26.93 194.28,-95.81 300.42,-140.78 86.53,-36.67 173.17,-66.94 252.16,-101.06 59.71,-25.79 185.89,-32 232.39,-72.27 52.49,-45.45 -20.33,45.52 25.66,-34.85l-280.9 -42.75c196.88,-23.3 185.58,-2.25 364.27,-77.31 162.87,-68.41 160.07,-60.5 215.85,-226.93 -70.11,0.72 -99.06,28.13 -184.24,29.96 -66.94,1.43 -107.86,-20.45 -175.16,-35.65zm-2769.21 143.63c-0.72,-75.52 9.89,-123.2 54.25,-158.47 113.09,-89.93 295.13,-153.36 424.02,-214.71 482.36,-229.62 935.76,-252.45 1483.05,-217.8 205.98,13.05 499.27,-21.49 579.14,51.62 54,49.43 85.42,72.32 84.86,120.83 -41.18,10.44 -268.38,-4.33 -333.65,-5.94 -100.67,-2.47 -270.92,18.55 -218.32,-116.19 -21.4,17.49 -22.53,22.1 -42.3,43.82l-56.77 55.29c4.1,-36.92 4.1,-56.37 21.72,-88.38l34.49 -41.37c1.26,-5.19 5.61,-5.26 8.28,-8.02 -117.44,18.96 -144.36,126.97 -151,112.29 -1.06,-2.35 -4.68,5.37 -7.21,7.88 -37.52,-21.44 -11.69,0.75 -35.76,-16.52 -24.45,-17.55 -7.29,-7.64 -24.45,-23.85 -117.42,-110.89 -679.24,-37.76 -823.21,-21.64 84.69,47.59 310.42,-32.88 637.11,334.82 109.61,123.35 353.1,444.11 376.48,579.6 -49.26,11.98 -93.98,34.6 -130.17,51.86 -127.86,-195.39 -166.25,-260.41 -318.25,-431.65 -106.99,-120.54 -238.79,-217.84 -452.93,-285.29 -211.2,-66.51 -448.76,-80.65 -662.29,-5.75 -159.74,56.03 -372.53,124.68 -447.09,277.54zm7932.43 -634.83c38.16,-22.17 47.46,-33.64 66.32,-94.93 26.14,32.09 24.27,32.08 54.29,57.91 15.11,13.02 19.17,12.57 31.01,25.7 52.66,58.34 -23.83,-48.94 9.27,12.37 16.3,30.17 12.13,-10.36 2.64,18.12 -55.67,22.36 -81.9,7.58 -140.49,-7.89 14.63,66.32 145.32,326.01 183.43,417.44 30.43,72.98 51.78,146.29 82.35,214.8 157.12,352.11 311.07,699.39 437.87,1067.22 91.28,264.75 187.39,662.8 309.72,882.16 49.09,88.03 165.89,302.7 190.11,409.76 17.15,75.82 -86.57,240.24 -118.83,328.37 -24.97,68.23 -15.64,53.53 -78.55,83.23 -10.59,-11.66 -6.6,-3.7 -19.93,-26.64 -4.46,-7.69 -12.68,-25.09 -14.33,-29.19 -62.42,-155.38 -38.41,-355.96 -73.27,-511.31 313.52,72.76 35.02,-187.93 1.12,-283.05 -120.93,-339.44 -152.24,-738.36 -306.66,-1054.34 -102.44,-209.61 -173.48,-431.06 -279.98,-628.93 -64.09,-119.08 -256.04,-519.33 -282.08,-630.02 -63.79,36.1 -114.51,94.92 -161.46,148.44 -47.49,54.15 -83.53,107.02 -131.93,166.21 -84.6,103.49 -166.25,254.22 -224.14,386.4 -94.91,216.7 -189.16,425.77 -231.78,658.37 -24.44,133.33 -13.37,170.89 64.17,241.33 26.97,-29.27 7.7,-28.54 5.4,-82.08 119.4,2.9 77.34,203.7 64.1,279.65 19.25,-13.75 204.82,-240.51 47.58,-356.98 123.17,-252.38 219.71,-581.57 407.48,-793.92 -13.05,68.24 -117.22,289.01 -152.43,373.63 -50.55,121.47 -133.93,253.04 -145.65,392.97 -45.58,543.91 -187.08,260.11 -164.78,623.3 5.63,91.63 5.25,178.05 1.35,269.65 -23.16,542.95 33.25,898.13 178.98,1404.04 28.43,98.71 49.33,98.44 91.26,178.17 91.39,173.75 156.48,376.36 257.09,537.89 86.64,139.1 167.2,286.99 269.2,397.83 236.96,257.49 161.75,132.41 357.04,309.77 90.36,82.06 215.85,145.15 337.17,188.87 128.82,46.42 280.77,300.3 991.96,355.61 153.48,11.94 144.42,46.03 220.96,50.17 89.98,4.85 137.98,-22.12 238.08,1.49 -310.73,140.04 -701.96,-36.75 -1011.87,-99.03 -37.87,-7.61 -149.59,-70.25 -199.6,-95.18 -269.66,-134.4 -49.86,-202.16 -658.39,-262.19 -367.74,-36.28 -746.1,-75.43 -1119.45,-105.26 -185.49,-14.83 -366.69,-10.18 -542.11,-35.04 -179.05,-25.38 -362.77,-45.83 -541.77,-69.33 -1075.17,-141.1 -2149.73,-320.88 -3231.07,-431.06 -184.67,-18.82 -372.06,-36.25 -555.04,-54.59 -385.54,-38.63 -312.57,-66.44 -524.06,-100.08 105.28,-83.12 140.96,-13.12 216.55,-4.22 92.81,10.94 279.14,-192.2 337.62,-266.07 53.21,-67.2 79.73,-116.83 116.36,-198.4 308.35,12.27 595.27,26.39 901.09,63.75 139.64,17.05 290,35.25 431.09,46.76 155.72,12.68 316.28,-5.51 465.94,17 127.18,19.13 289.63,70.46 401.4,77.96 123.85,8.32 299.52,-30.45 436.54,-33.49 150.13,-3.35 317.07,8.92 468.46,15.25 424.3,17.73 909.66,25.19 1295.14,-155.79 128.76,-60.45 182.14,-110.46 235.21,-246.26 45.3,-115.91 60.95,-311 -5.48,-416.35 -104.75,-166.13 -127.7,-66.17 -149.97,-333.92 -26.76,-321.74 170.06,-211.85 179.94,-795.06 1.38,-81 -13.19,-153.23 -18.51,-232.02 -8.15,-120.55 37.82,-84.7 84.02,-163.87 -104.68,-2.79 -67.22,63.41 -232.22,-16.52 10.78,225.78 111.76,492.4 30.77,725.89 -38.77,111.77 -105.12,151.37 -128.52,285.78 -23.74,136.32 16.34,253.15 10.91,392.33 -17.71,-51.37 -18.32,-110.34 -37.41,-167.24 -133.27,-397.37 148.49,-309.33 60.82,-955.39 -8.73,-64.4 -23.61,-135.49 -27.96,-199.06 -8.31,-121.43 20.6,-71.99 76.14,-138.19 -12.49,-50.39 -54.29,-54.96 -74.19,-100.09 53.76,-1.05 14.13,-7.83 58.06,7.28 82.92,28.53 -69,58 74.65,60.47 62.24,1.07 157.37,-11.67 204.5,-56.47 -163.77,-32.83 -144.59,28.68 -218.15,-92.07 -37.12,2.45 -179.87,62.71 -212.73,81.55 -28.03,403.35 180.61,469.52 -2.46,878.12 -90.93,202.97 -80.66,176.51 -85.69,427.59 -3.39,169.38 -102.8,43.09 -48.32,439.72 -31.7,40.91 -22.61,14.54 -53.13,56.76 27.53,102.03 68.28,125.03 -21.71,343.14 33.52,-28.66 59.61,-69.43 95.78,-99.72 -45.5,60.73 -87.38,121.83 -111.07,211 363.43,2.42 189.18,-414.22 298.72,-411.81 36.95,14.26 13.87,-8.21 27.91,30.52 3.66,10.11 5.48,41.26 5.67,53.06 0.75,44.02 -4.73,85.7 -9.26,128.54 -9.71,91.65 51.26,71.32 -22.89,129.86 27.35,8.04 25.25,-19.82 61.56,-1.46 -35.94,50.85 -108.55,102.14 -179.34,112.29 -118.22,16.96 4.74,-26.97 -124.66,-13.68 -93.95,9.66 -87.48,148.85 -582.02,149.24 -228.07,0.19 100.02,-91.41 -232.42,-27.18 -98.91,19.11 -1206.1,24.04 -1280.17,11.83 -94.12,-15.52 -387.41,-67.36 -425.86,-97.96l107.72 -6.44c0.88,17.88 -2.55,20.52 6.38,47.23 129.19,4.55 195.23,6.68 311.49,-22.31l-72.88 25.83c-3.81,1.51 -9.39,3.31 -13.55,5.97 76.05,6.04 156.04,38.64 235.56,15.9 76.98,-22.01 60.05,-66.07 119.65,-122.66 34.43,17.84 21.92,8.8 47.37,35.96 -41.33,52.49 -43.48,17.17 -62.95,89.77 159.36,7.53 379.8,16.29 536.5,7.26 94.14,-5.43 147.61,-58.27 234.88,-34.64 138.8,37.6 40.01,50.41 189.1,-7.47 74.5,-28.93 126.5,4.66 225.83,-43.63 151.49,-73.66 245.62,-364.68 406.82,-390.59 -35.17,163.45 -60.42,162.31 -142.36,265.28 37.64,21.04 159.72,5.52 224.73,-0.99 49.13,-137.8 152.48,-318.99 117.53,-405.43 -114.53,-30.56 -255.74,1.62 -378.92,-0.06 -89.9,-1.21 -63.34,16.59 -85.83,-47.61l21.38 -5.08c18.07,-2.05 17.36,-2.37 37.18,-2.83 20.31,-0.47 48.16,1.29 71.28,0.9l206.76 2.82c51.31,1.89 93.3,-26.65 178.52,-35.93 15.41,-122.69 -21.13,-335.03 -20.09,-485.26 1.01,-147.57 81.94,-260.04 128.31,-387.54 145.41,-399.76 -129.45,-653.59 -76.2,-864.43 59.58,-77.83 278.91,-141.65 392.33,-140.69 -80.75,-35.59 -157.65,-71.48 -258.05,-42.49 -64.61,18.65 -174.76,93.1 -199.67,126.88 -84.42,114.48 54.63,405.95 86.94,530.99 58.54,226.45 -22.81,339.27 -109.05,510.76 -106.83,212.46 -1.47,523.51 -59.93,607.54 -50.44,74.35 -61.96,-5.05 -100.59,70.84 46.2,45.85 121.26,11.02 168.58,44.22 -60.11,2.67 -65.9,-4.56 -119.93,-13.1 -110.31,-17.43 -30.2,1.43 -95.84,18.96 -65.28,17.43 -137.48,-21.91 -161.08,-81.62 -49.31,-124.76 -8.49,-340.09 15.95,-472.44 71.97,-389.7 64.01,-451.84 166.15,-884.69 33.59,-142.36 79.54,-293.24 91.2,-441.5 22.8,-290.25 204.91,-1021.85 361.9,-1210.4 54.83,16.96 87.49,29.63 123.37,60.08 -44.25,214.14 -189.07,451.26 3.71,682.16 51.13,61.25 99.2,45.51 124.98,60.78 37.4,22.16 -18.04,15.53 45.93,33.38 14.47,-16.46 232.68,-510.48 204.66,-587.61 -36.48,7.46 -51.99,37.67 -75.02,83.06 -20.8,40.99 -31.94,78.1 -50.99,119.22 -31.9,68.85 -73.16,180.97 -121.22,219.88 -160.48,-58.04 -169.51,-298.33 -100.71,-483.46 101.06,-271.92 159.29,-176.62 371.45,-310.36 57.53,-36.27 170.94,-105.68 195.75,-144.87 44.51,-70.35 49.59,-185.78 24.95,-277.58 -60.88,-226.85 -334.51,-51.05 -499.18,-178.44 21.67,-72.08 165.37,-421.24 206.26,-450.63 37.71,63.98 141.11,361.09 291.59,394.17 -29.95,-186.61 -180.27,-490.51 -184.1,-642.13 41.32,-22.28 93.13,-57.41 167.33,-40.5l16.83 198.32c-5.79,-40.31 -16.6,-71.58 -27.46,-114.66 -19.6,-77.69 -9.15,-72.35 -74.08,-84.36 -8.99,115.97 118.31,355.46 162.04,475.9l179.8 477.16zm1018.67 -1020.59c-14.04,10.82 -7.98,7.35 -29.97,16.82l-353 132.49c36.36,87.8 59.42,80 118.1,131.94l-290.62 227.04c-41.88,-92.46 -87.07,-207.57 -126.33,-310.57 -115.35,-302.61 -78.17,-160.62 -66.03,-315.03 170.73,91.05 281.81,-79.38 295.74,105.61 9.25,122.76 3.64,152.58 81.89,145.38 152.08,-14 190.22,-126.84 370.22,-133.68zm27.08 105.17l58.97 -9.67 -125.02 -320.01 95.48 0.61c24.07,89.23 69.05,138.24 71.91,185.45l-4.41 49.43c73.89,35.6 40.49,0.2 74.5,84.18 18.63,-14.16 294.99,-121.49 347.2,-138.96 287.99,-96.36 560.73,-140.99 869.71,-131.96 186.87,5.46 252.42,72.42 329.61,175.07 -123.94,-32.3 -188.16,-96.91 -301.64,-105.32 -115.39,-8.55 -253.61,21.2 -368.57,39.37 -553.02,87.41 -1010.96,290.57 -1428.86,626.92 -73.31,59.01 -165.04,108.39 -235.15,165.76 8.53,43.05 88.45,274.07 104.87,309.77 283.19,615.93 -5.21,63.33 177.85,588.67 35.14,100.82 75.07,192.2 113.96,282.63 38.03,88.43 418.57,1071.17 441.67,1175.63 -73.33,18.62 -70.19,19.03 -106.32,-62.75 -214.26,-485.05 -409.6,-1043.07 -606.71,-1479.33 -31.67,-70.08 -237.72,-345 -259.99,-485.38l144.48 -27.36c-17.13,-59.86 -41.47,-114.9 -64.24,-200.77l-184.35 -543.99c-14.27,102.05 -3.48,136.88 7.36,235.77 11.35,103.61 0.83,160.43 56.43,183.88l12.54 -100.6c66.72,150.5 75.2,107.53 78.79,182.1 5.3,110.44 33.73,166.9 15.66,222.12l-10.07 -145.29c-7.8,10.13 -9.74,12.04 -19.73,30.92l-9.9 21.09c-8.35,19.26 -9.21,27.61 -14.4,42.94 -129.32,5.85 -154.49,-6.55 -195.52,-106.94 -27.93,-68.33 -55.17,-137.29 -72.94,-210.09l-75.65 -365.25c-12.21,-45.48 -18.41,-77.39 -49.05,-112.43 0.58,46.12 51.94,347.26 62.95,369.56 -19.15,-87.18 -60.19,-178.62 -84.59,-270.66 -43.31,-163.43 30.6,-95.98 47.72,-274.8l-135.01 70.1c70.45,-97.88 41.09,-201.43 395.02,-161.29 -14.88,117.66 -43.42,8.52 -29.59,114.67l99.42 284.22c51.49,122.34 102.95,265.67 177.2,350.03 55.32,-24 64.44,-45.29 106.76,-79.86 77.68,-63.45 202.22,-169.81 291.79,-218.46 5.34,-103.99 -23.24,-116.89 56,-162.01l4.62 126.46c55.03,-30.17 26.06,-39.23 43.99,-118.14 12.11,105.9 7.26,47.07 36.07,54.32 34.07,-48.16 55.78,-72.48 59.17,-140.35zm-1510.82 -56.56c-49.06,-120.1 -76.93,-133.52 8.97,-225.67 58.58,-62.84 97.52,-115.94 176.26,-164.63 83.55,-51.67 432.93,-175.17 484.96,-24.41 -68.13,30.42 -39.22,9.89 -109.39,-14.08 34.5,56.27 1.39,9.21 118.26,56.25l-5.57 102.89c-43.94,-24.91 -112.85,-74.63 -175.79,-87.13 -93.25,-18.52 -358.9,58.38 -404.19,102.75 -57.79,56.63 -13.67,95.33 -8.33,109.38l4.2 17.81c95.17,-13.23 89.78,-51.09 152.62,-93.83 141.53,-96.22 312.33,-215.59 425.52,49.05 -139.79,-9.03 -273.41,-46.46 -412.51,-6.81 -109.18,31.12 -149.06,158.16 -255,178.42zm-2089.86 -267.36c53.24,-77.39 8.1,-34.32 79.68,-90.95l289.72 -224.71c-32.56,96.65 -54.32,112.97 -111.64,189.09l-45.05 52.01c68.71,-8.58 144.03,-24.66 207.54,-32.72 -18.7,49.99 -42.29,66.94 -66.17,121.76 120.66,-44.29 29.63,-109.19 122.31,-135.19 5.44,9.07 16.5,8.56 2.73,57.59 -5.1,18.15 -16.93,40.93 -24.95,64.19l47.57 -66.83c17.15,-36.19 2.59,-20.61 31.41,-57.29 63.5,-7.61 69.04,-25.08 92.11,25.67 33.31,-42.11 13.02,-29.7 71.73,-46.08 -23.88,86.69 10.48,11.72 -39,64.26 -108.91,115.67 12.93,65.96 -105.1,122.7 84.85,6.12 15.43,26.02 106.01,7.79l32.33 -6.44c94.56,-11.14 71.2,25.76 102.09,-45.25 34.9,-80.25 37.92,-48.95 50.29,-101.77 -59.94,21.33 -27.11,-3.79 -47.93,46.81 -3.58,-3.4 -7.94,-8.39 -10.12,-10.83 -1.91,-2.13 -6.97,-7.12 -8.96,-9.38 -1.48,-1.68 -5.07,-5.84 -6.33,-7.33 -35.25,-41.57 11.1,-1.84 -4.67,-8.19 -33.04,26.11 -39.43,10.37 -15.64,63.99l11.67 19c-8.07,2.21 -75.78,24.32 -75.97,24.33 -81.02,3.6 -47.12,-15.55 -59.6,-27.02 67.01,-43.67 86.16,-127.03 147.23,-128.63 89.29,-2.34 -7.64,6.48 63.54,13.89 91.73,9.54 42.91,-9.82 48.45,-14.77 27.63,-24.71 -22.69,-74.99 80.52,-22.28 -15.52,21.39 -4.71,5.84 -23.99,23.62 -83.45,76.93 -45.23,65.55 -106.69,142.07 7.65,49.44 15.73,39.45 35.13,81.61 -65.33,2.18 -42.44,-10.09 -71.84,-13.02 -49.74,-4.94 -14.36,20.09 -204.88,2.49 -109.91,-10.15 8.77,73.65 -267.85,55.8 94.54,-23.79 117.32,12.7 180.53,-62.78 18.73,-22.38 73.42,-119.26 79.86,-156.01 -71.34,48.54 -16.48,100.47 -118.98,117.62 -0.32,0.06 -38.86,1.82 -43.29,2.05 -68.11,3.49 -45.97,14.04 -83.22,1.67 -3.2,-1.06 -7.39,-3.39 -10.22,-4.68 -2.98,-1.35 -7.48,-5.18 -9.86,-6.5l-18.6 -16.94c-25.59,44.1 -58.52,64.78 -115.2,37.84 2.98,-26.49 32.37,-70.37 56.06,-103.42 -83.22,-19.27 -81.74,56.28 -147.35,115.35l71.07 13.11c-297.57,85.73 -194.85,16.25 -191.92,-71.8 -52.53,69.22 -36.38,59.63 -68.07,122.44l-75.66 21.98c26.92,-52.13 25.57,-38.91 60.16,-77.97 -111.7,65.26 -45.63,35.96 -75.92,6.11 86.01,-33.19 111.51,-130.73 193.02,-142.98 30.29,52.61 6.41,35.81 -8.1,74.91zm1896.96 -221.02c-49.83,-205.95 166.64,-367.88 342.92,-392.79 38.78,-5.48 54.18,-13.16 95.55,-5.81 107.77,19.12 0.63,55.61 114.34,87.16 65.28,18.11 270.39,31.86 262.98,178.48 -67.77,-90.82 -207.37,-179.49 -309.09,-60.98 71.52,15.07 301.76,32.31 354.92,155.88 -73.43,-13.76 -70.14,-35.49 -133.76,-50.87 -53.99,-13.06 -113.56,-3.5 -164.6,2.99 23.95,43.26 11.44,16.91 34.61,43.22l30.36 38.06 -99.96 0.04c-13.91,-19.23 -33.6,-46.93 -47.34,-73.06 -107.46,-10.75 -202.65,43.1 -286.08,91.81 -104.91,61.26 -122.04,106.37 -123.96,249.9l-31.36 -101.96c79.2,-123.23 -6.22,-47.45 152.39,-207.53 81.38,-82.14 94.83,-92.23 240.04,-117.95 -37.06,-50.88 -42.42,-79.22 -115.82,-94.72 -61.95,-13.08 -112.33,-9.29 -161.31,18.39 -132.22,74.72 -95.58,94.71 -154.85,239.74zm-3233 1292.75c25.54,-260.17 202,-567.34 380.13,-750.31l129.84 -153.88c49.55,-66.21 76.74,-92.97 136.77,-147.06 86.97,-78.35 126.35,-132.14 220.23,-205.75l290.86 -276.4c23.8,-27.96 46.05,-44.22 75.09,-66.93 103.41,-80.86 180.55,-177.95 327.25,-240.52 335.74,-143.21 652.83,-12.92 718.41,293.89 -36.61,-70.18 -51.96,-103.46 -102.62,-163.67 -62.23,-73.96 -54.97,-69.59 -145.37,-80.66 -149.44,-18.31 -309.79,6.02 -448.47,57.91 -118.74,44.42 -242.88,151.76 -311.78,213.1 -53.32,47.47 -71.62,88.47 -121.03,134.01l-645.79 645.7c-132.79,125.86 -405.89,408.87 -452.63,587.75 60.04,-32.65 146.67,-159.86 196.42,-219.75 67.34,-81.05 109.67,-134.29 193.43,-203.73 69.56,-57.65 362.98,-341.61 423.64,-351.91l-24.82 139.89c-270.99,182.13 -249.78,187.82 -459.36,364.5 -109.92,92.66 -296.9,299.62 -380.22,423.81zm4719.26 -1560.98c43.17,-166.65 104,-138.66 156.97,-297.13 28.9,-86.5 22.84,-55.75 80.07,-98.79 -9.63,137.43 0.73,341.56 -101.9,416.31 -63.5,46.25 -264.14,219.88 -310.55,201.72 -26.26,-21.25 -66.98,-77.91 -61.7,-137.28 2.19,-24.53 -11.43,-42.69 42.45,-47.25 51.99,-4.39 -8.35,8.5 64.93,17.08 26.99,-34.51 81.63,-92.16 95.92,-118.36l3.17 141.34 30.65 -77.64zm-1481.18 -773.49c-16.91,-89.92 17.59,-39.66 54.12,-105.51 -22.8,-40.3 -5.96,-26.56 -56.03,-51.68 94.55,-51.3 334.21,-54.24 315.9,89.68 -44.51,27.12 -62.69,8.5 -104.81,32.97 91.44,123.4 66.15,193.07 122.45,342.74 40.8,108.41 113.2,221.73 174.79,280.03l-217.01 28.82c-80.85,-149.6 -88.33,-173.21 -108.6,-374.25 -22.84,23.22 -3.08,-5.76 -29.62,38.98l-37.62 103.2c22.74,-138.18 -87.76,-247.77 -113.57,-384.96zm982.36 -186.72c-29.62,20.12 -23.3,21.17 -38.28,51.03l-32.54 59.06c-44.48,-73.09 -8.83,-113.32 30.16,-186.92 118.6,-223.89 317.01,-207.2 460.32,-30.12 192.49,237.86 228.46,553.94 42,759 -76.05,83.62 -239.2,148.92 -396.02,91.22 -260.66,-95.91 -429.56,-650.78 -130.03,-957.71 24.28,-24.89 38.62,-49.42 63.84,-64.93l-11.15 -12.28c-25.32,-31.86 1.71,-52.68 80.91,-73.17 -146.44,-14.63 -200.84,26.39 -320.29,27.36l-28.38 -98.03c-93.67,26.67 -36.08,85.44 -133.54,139.8 13.14,-49.41 50.23,-163.03 80.43,-188.34 48.56,-40.72 148.96,-6.6 186.78,19.99 57.93,40.72 -13.96,34.27 92.73,43.01 85.16,6.96 236.38,2.02 305.51,42.2 1.98,37.87 -9.26,37.15 -32.37,66.98 295.02,108.86 462.62,426.44 449.31,736.92 235.97,39.24 138.41,93.21 247.34,116.53 72.34,15.5 62.59,-13.4 109.2,50.36 24.23,33.15 46.2,77.61 63.55,121.36 81.17,204.7 31.01,393.37 -115.74,531.23 29.58,45.36 42.99,20.85 53.79,72.67 -84.03,49.05 -195.9,46.3 -316.64,52.81 -125.31,6.76 -151.05,-31.05 -247.27,-92.57 133.05,-103.23 110.48,31.08 264.04,10.9 -13.2,-13.56 -64.24,-55.1 -68.96,-64.39 -15.15,-29.81 5.86,21.19 -6.08,-23.77l-18.05 -49.94 65.11 -26.19c1.61,3.98 2.68,9.31 3.77,12.32l18.2 43.84c9.09,15.19 19.31,21.97 32.56,33.67 14.06,-21.24 13.9,-10.71 4.15,-70.71 -51.55,-317.4 59.51,-378.23 29.38,-622.06l-130.63 -65.6c-90.32,106.61 -52.15,274.58 -264.79,410.83 -223.46,143.2 -268.76,21.36 -539.71,18.64l98.3 58.57c37.5,14.21 69.89,26.06 110.2,37.92 5.74,19.39 -67.56,-19.47 18.02,59 35.53,32.57 52,21.88 45.12,82.79 -30.77,-18.8 -85.42,-35.48 -114.19,-53.87 -34.87,-22.28 -50.53,-64.91 -75.38,-95.11 -79.67,-96.83 -108.65,-61.09 -223.13,-118.84 94.01,11.97 127.97,14.84 218.5,-12.17 68.04,-20.28 127.68,2.38 245.12,-5.23 152.51,-9.89 228.62,-73.91 314.48,-186.28 62.38,-81.63 114.25,-255.14 115.99,-386.16 2.05,-155.02 -70.45,-265.41 -142.67,-359.27 -63.03,-81.92 -222.31,-194.32 -294.06,-216.43 -152.33,-46.91 -386.37,346.82 -322.16,633.88 27.79,124.26 105.61,261.94 222.98,286.6 -41.11,-72.18 -201.89,-132.33 -141.09,-321.41l23.6 41.53c45.14,88.54 43.29,94.09 210.09,89.17 -22.68,-40.01 -28.9,-29 -51.09,-76.03 -69.34,-147 -35.57,-189.33 -41.27,-261.04 -0.32,-4.02 -1.01,-8.39 -1.43,-11.83l-7.44 -29.37c-28,42.64 -9.69,7.89 -19.65,55.82 -15.17,72.99 -2.31,48.9 -25.6,75.69 -16.76,-58.91 -23.64,-101.62 -15.87,-172.93zm-620.03 -276.55c60.16,-87.48 8.3,-241.66 154.28,-237.41 -49.69,76.52 -100.35,217.5 -132.69,323.14 -30.68,-70.17 -56.11,-102.16 -135.11,-117.45 -12.9,-32.39 69.7,30.36 -21.16,-55.12 -28.29,-26.61 -38.19,-36.55 -63.98,-62.16 -25.92,11 -38.68,20.93 -61.26,33.91 42.56,42.37 71.73,39.23 109.14,99.04 21.85,34.93 44.63,75.77 60.58,111.85 -258.06,-65.99 -268.11,-27.14 -476.48,50.11 54.56,-116.05 128,-78.95 211.38,-157.09 -20.24,-49.13 -69.13,-97.75 -136.47,-118.71l121.87 -46.98c25.01,35.62 -11.55,107.39 43.99,97.33 1.97,-3.2 3.18,-8.01 3.87,-10.58l10.66 -91.35c15.89,-9.32 91.54,-34.41 114.44,-34.87 122.15,-2.45 137.18,174.23 196.95,216.33zm1097.28 -817.78c20.51,-213.59 458.07,30.9 524.36,163.39 52.99,105.88 29.27,271.98 -28.13,349.4 -66.01,89.04 -230.1,88.87 -328.1,36.51 101.35,-32.42 250.06,18.61 272.05,-115.05l-158.06 -40.91c141.76,-178.63 338.96,-126.08 -29.36,-368.87 -79.68,-52.52 -200.23,-144.68 -252.76,-24.46zm-5098.49 -315.07c11.78,-38.57 -8.36,-15.63 36.29,-47.52 85.56,-61.11 396.51,-90 488.28,-88.87 160.19,1.97 416.33,53.9 528.44,120.08 22.52,52.67 20.04,135.71 19.38,201.33 -2.67,266.62 -7.96,128.9 32.13,198.76 -26.77,42.14 -43.15,57.48 -59.28,111.95 -4.06,-53.23 24.63,-31.57 -15.16,-76.98l-41.79 92.73c40.67,61.29 89.74,79.87 120.34,154.98 56.26,138.15 31.98,191.52 25.26,212.65 -1.22,3.86 -5.31,14.79 -6.34,12.77 -1.02,-2.03 -4.25,8.64 -6.98,12.59l-18.57 -157.06 -184.29 17.66c-12.29,68.48 -47.58,126.97 -80.94,158.14 -107.01,-0.64 -186.03,-11.05 -297.65,1.26 -97.73,10.77 -137.97,43.48 -241.09,47.58 -96.6,3.85 -202.27,0.52 -298.79,-6.56 -85.86,-6.29 -164.68,-32.96 -255.13,-25.7 -27.36,24.27 -8.75,13.67 -23.19,30.75 -42.68,50.49 -48.78,25.11 -100.25,55.75 -71.48,42.54 -152.24,269.75 171.3,330.28 92.86,17.37 658.62,-30.16 775.19,-50.15l18.68 24.09c86.55,108.19 403.89,50.44 508.57,20.52 173.47,-49.58 155.34,-6.39 266.17,27 100.95,30.42 164.43,25.22 215.34,-39.38 47.72,-60.58 164.31,11.43 233.46,-134.88 99.44,21.55 175.71,61.78 280.45,82.62 239.16,47.58 744.56,63.51 981.8,59.27 -3.14,2.61 -7.52,5.51 -10.01,7.09 -2.46,1.55 -7,4.94 -10.04,6.77l-60.98 28.94c-70.41,30.58 -144.38,70.57 -229.01,80.65 -130.7,15.56 -126.53,-39.88 -144.91,-55.81 -35.94,-31.15 -113.02,-19.37 -162.41,-15.24 -156.43,13.09 -174.38,102.42 -297.13,133.64 -105.37,26.81 -243.82,33.96 -330.03,87.44 13.92,350.99 44.07,221.74 -139.77,381.64l-1198.71 1142.46c-234.92,249.75 -234.99,404.02 -337.27,712.96 -44.35,133.95 -142.52,272.44 -74.41,407.15 -119.19,26.61 -150.63,-25.67 -289.19,-4.09 -200.59,31.25 -421.78,120.89 -562.01,103.41 -154.29,-19.24 -123.74,-50.11 -192.24,-146.13 -147.99,-207.42 -104.11,-165.8 -509.76,-169.18 -393.2,-3.29 -922.68,-48.27 -1296.53,50.59 -426.99,112.92 -364.58,154.88 -478.1,201.87 -357.38,147.93 -468.29,140.3 -515.51,509.5 -15.63,122.17 -10.09,158.5 45.36,253.88 -41.87,63.83 -108.78,90.93 -143.67,184.52 -47.11,126.34 -51.46,597.37 -132.38,803.34 -22.72,57.81 -23.65,51.12 -1.81,119.23 39.8,124.06 -34.16,92.5 88.36,351.58 59.3,125.39 118.61,108.92 150.67,161.69 30.6,50.36 5.47,227.4 9.18,298.76 25.31,486.89 99.94,604.98 267.14,999.6 52.78,124.6 118.68,340.95 181.45,442.78 66.81,108.39 276.92,177.45 362.75,256.43 24.9,11.63 17.04,3.7 40.19,21.9 2.51,1.96 5.79,4.56 8.21,6.76l27.59 35.01c-59.26,-0.46 -601.23,-21.2 -604.22,4.78 -0.7,6.11 -3.51,8.62 -4.44,11.43 -0.92,2.78 -2.89,8.08 -3.98,11.48l-15.3 54.49 -408.54 30.51c213.07,161.1 903.58,105.23 1217.39,142.35 24.72,47.87 -14.67,-51.38 -0.36,11.81 12.45,54.96 178.39,62.29 265.87,69.63 -55.94,42.28 -119.13,16.15 -198.04,14.06 117.07,75.5 908.62,117.84 1110.51,133.36 352.74,27.12 774.83,68.68 1104.34,133.02 -210.9,-8 -803.07,-91.91 -1118.14,-115.32 -354.97,-26.39 -804.36,-31.06 -1134.51,-91.07 104.49,78.26 1005.53,145.39 1223.22,166.97l1251.91 135.19c-355.9,12.05 -756.34,-70.78 -1127.05,-87.33l186.14 72.4c43.33,9.73 -9.94,-0.14 28.85,3.27l185.65 22.15c59.04,7.34 124.41,2.95 191.62,9.38 191.92,18.41 487.36,77.16 695.78,64.81 -54.72,-51.03 -83.21,-42.55 -157.78,-48.07 12.17,3.61 62.71,4.11 111.69,13.02 53.09,9.66 62.85,26.64 127.63,40.24 47.94,10.07 94.11,9.62 152.43,18.83 21.67,3.42 49.23,9.07 71.36,10.23 307.53,16.26 1006.78,99.74 1282.34,139.26l891.21 116.09c12.82,1.86 56.25,9.4 72.82,13.07 59.46,13.13 -1.33,7.67 56.25,11.49 54.8,3.64 90.59,0.33 149.57,10.12 190.81,31.64 139.71,55.67 250.29,50.77 139.04,-6.16 233.08,22.27 349.48,38.44l28.42 1.87c58.05,0.87 122.88,1.43 183.16,19.92 100.94,30.97 355.38,47.47 495.34,71.14l931.33 107.39c199.05,19.94 402.52,49.46 602.32,77.19 189.26,26.28 426.04,47.9 619.04,64.82 103.11,9.05 218.44,6.93 318.36,21.32l698.9 53.13c71.92,13.69 -23.41,7.88 62.22,17.75 87.6,10.11 375.37,-3.91 456.82,-25.29 351.52,-92.35 436.09,-87.75 692.4,-345.56 54.02,-54.33 108.1,-117.86 147.48,-194.23l85.37 -211.36c6.16,-47.93 9.09,-13.27 -6.09,-40.59 -70.68,31.77 -9.79,73.35 -170.83,218.16 -62.82,56.5 -166.82,110.4 -290.1,92.99 -241.85,-34.16 -465.23,-66.53 -713.85,-85.4l118.7 -84.11c39.9,-24.16 79.93,-52.2 120.44,-78.18 76.94,-49.34 149.03,-97.28 210.82,-171.75 47.92,-57.74 4.91,-53.79 77.98,-106.96 51.15,-37.25 314.74,-212.89 344.74,-251.11 60.71,-77.31 40.36,-184.78 126.83,-256.3 265.48,-219.58 202.16,-424.66 326.45,-552.76 55.91,-57.63 88.16,-121.11 139.12,-163.53 0.94,-60.06 86.77,-260.25 107.26,-357.5 22.2,-105.37 47.45,-110.66 63.86,-178.56 21.54,-89.12 89.65,-1003.81 86.86,-1090.08 -77.5,7.04 -96.85,2.37 -101.36,77.25 -5.81,96.68 3.35,428.97 -38.03,478.04 -38.25,45.36 -431.52,96.64 -509.63,102.68 109.14,-51.17 296.07,-67.04 431.9,-136.01 109.32,-55.51 85.19,-364.35 84.33,-481.56 -144.03,-0.02 -696.56,64.01 -772.72,27.85 23.82,-22.58 -21.1,-15.07 58.68,-24.7 11.15,-1.35 43.65,1.67 56.91,2.39l582.96 -22.86c86.52,-4.27 110.81,-23.65 211.49,-28.25 11.66,-143.38 3.43,-315.6 -15.8,-456.6 -42.6,-312.51 20.57,-369.04 -113.89,-820.65 -26.65,-89.53 -72.91,-277.53 -104.78,-349.82 -45.67,-103.58 -19.8,45.33 -67.94,-172.76 -16.3,-73.87 -47.91,-91.32 -76.81,-150.48 -66.05,-135.2 -79.97,-197.81 -125.09,-342.06 -43.19,-138.07 -156.91,-67.68 -233.31,-236.16 -131.51,-290.06 -74.23,-76.16 -207.55,-246.51 -64.9,-82.92 -69.91,-44.1 -148.5,-92.48 -36.16,-22.27 -70.92,-78.66 -113.51,-113.89 -306.35,-253.36 -467.07,-232.71 -591.6,-344.7 -163.25,-146.79 -76.52,-84.24 -267.17,-186.93 -107.78,-58.06 -146.91,-163.74 -299.66,-173.39 -481.93,-30.49 -735.72,33.31 -1181.36,184.97 -35.46,-31.8 -47.56,-54.26 -62.77,-101.63 -6.83,-21.3 -9.8,-43.22 -19.43,-64.13 -9.69,-20.99 -7.24,-14.1 -16.71,-27.76l-23.19 -27.03 134.56 -41.13c30.81,-100.19 -38.66,-1.13 30.01,-83.25 22.44,-26.84 46.72,-58.9 64.43,-93.77 43.45,-85.54 43.88,-171.11 35.62,-275.7 -38.4,-486.14 -167.62,-236.59 -214.26,-413.24 150.1,-60.68 239.25,158.18 239.65,158.48 98.7,47.52 313.22,33.36 421.77,-8.4 143.25,-55.1 185.74,-127.95 109.9,-283.69 -156.48,-54.14 -207.57,41.52 -440.69,-82.28 -189.65,-100.71 -183.08,-13.82 -350.83,-174.83 -118.75,-113.98 -192.1,-1.72 -257.05,-140.55 -44.51,-95.13 -71.75,-174.29 -146.41,-250.55 -63.42,-64.77 -71.33,-49.91 -132.03,-80.38 -2.61,-1.31 -7.33,-4.27 -9.41,-5.38 -2.11,-1.12 -7.66,-1.48 -9.16,-5.96 -1.51,-4.54 -6.37,-3.81 -9.1,-6.27 17.53,-27.35 73.78,-86.96 102.83,-99.36 56.05,-23.91 73.29,8.44 119.17,35.83 65.74,39.24 203.04,85.42 291.21,82.06 86.17,-49.89 114.81,-101.92 171.7,-203.07 30.55,-185.97 44.81,-337.3 -71.27,-440.8 -230.76,-205.79 -254.73,-159.13 -318.64,-215.84 -92.3,8.47 -224.59,-49.25 -267.97,57.14 -37.1,90.98 16.12,196.44 34.23,286.05 37.75,186.86 -24.09,141.54 -73.24,242.47 -21.74,44.66 -9.31,106.51 -74.57,180.44 -96.47,109.29 -109.42,-43.75 -194.11,-152.88 -104.07,-134.08 -538.66,-165.79 -765.77,-110.6 -97.46,23.67 -150.84,55.59 -198.65,113.07 -77.4,93.07 -2.98,11.31 -146.74,93.87 -27.98,16.06 -15.14,11.48 -50.23,21.49 -89.58,25.56 -157.42,32.72 -244.17,66.97 -112.32,44.34 -111.62,42.83 -170.39,140.24 -151.55,-39.2 -309.02,-50.61 -472.5,-65.68 -315.9,-29.14 -183.21,-43.77 -478.64,-59.57 -293.47,-15.71 -155.92,-152.28 -411.56,-132.71 -270.97,20.73 -111.46,-5.92 -240.42,-3.96 -73.8,1.13 -163.9,23.18 -241.63,28.09 -69.1,-77.44 -68.07,-118.1 -101.04,-230.47 -36.57,-124.63 -35.32,-133.98 6.44,-252.1 53.8,-152.1 124.64,-379.08 19.07,-524.9 -102.65,-141.8 -327.94,-96.46 -534.65,-97.66 -234.28,-1.36 -359.87,-14.25 -573.79,42.66 -477.81,127.12 -362.49,535.42 -107.38,731.08 120.77,92.63 297.15,166.21 482.6,163.41 151.71,-2.28 390.33,-84.89 470.06,-162.06 -306.34,82.41 -470.71,165.18 -797.07,27.49 -186.95,-78.88 -351.04,-248.37 -276.38,-432.87l71.73 -99.92c23,-20.33 6.45,-10.76 35.4,-21.87z"/>
   <path class="fil0" d="M2539.64 9121.1c113.88,47.75 640.44,69.56 801.8,80.59 264.29,18.08 527.57,60.89 789.2,88.56 1006.1,106.4 2188.36,340.08 3120.18,409.64 276.75,20.65 546.9,39.31 822.23,64.77 198.37,18.34 668.27,75.9 841.88,54.16 -184.43,-168.51 -400.88,-131.22 -740.68,-163.54 -271.85,-25.88 -543.49,-44.7 -823.2,-71.23 -524.51,-49.76 -1051.9,-144.35 -1581.72,-216.6 -685.59,-93.5 -1703.76,-237.57 -2394.26,-292.72 -167.7,-13.39 -256.06,-27.51 -420.93,6.68 -115.48,23.95 -333.99,-35.44 -414.52,39.69z"/>
   <path class="fil0" d="M4014.75 253.91c-103.62,249.74 -199.36,417.58 298.97,554.19 266.02,72.92 731.47,-16.45 773.05,-215.74 -78.64,-31.12 -197.07,-26.89 -293.91,-53.93 -189.74,-52.98 -661.71,-298.34 -778.11,-284.52z"/>
   <path class="fil1" d="M3712.21 7417.27c-15.24,-92.43 -76.03,-176.98 56.91,-284.28 44.38,-35.82 38.29,-23.27 95,-12.32l-48.03 14.38c-49.76,16.02 -23.25,-2.35 -57.36,30.22 70.67,48.81 176.15,11.53 226.51,99.4 114.04,199 89.07,301.66 26.25,511.67 -23.8,79.56 -56.49,156.74 -124.11,181.18l53.98 -79.06c-33.58,26.41 -95.93,66.67 -109.99,108.22 158.47,122.87 228.76,-164.84 276.88,-259.56 1.36,-2.67 3.85,-5.93 5.06,-8.69 44.39,-100.05 -33.96,-414.72 -85.56,-495.43 -53.86,-84.23 -113.57,-151 -254.72,-144.51 -41.29,35.23 -106.32,128.55 -125.95,188.43 -29.77,90.83 -34.22,183.62 -27.49,282.04 13.38,195.7 32.33,357.18 153.44,456.34 2.82,-2.26 6.72,-5.43 8.45,-6.79 1.74,-1.38 6.62,-5.23 8.54,-6.75l26.13 -20.08 -58.72 -35.36c-1.13,-3.8 -5.65,-2.82 -8.12,-4.77 110.97,-30.35 225.08,-37.56 262,-252.1 -43.6,83.24 -65.76,140.52 -142.06,178.23 -96.93,47.92 -169.73,29.95 -190.66,-72.37 120.86,46.38 193.2,61.27 234.39,-81.95 -247.53,-16.28 -285.27,29.39 -266.4,-168 75.57,126.33 210.9,45.01 231.76,-72.1 -68.15,-7.28 -43.67,-39.31 -133.72,-96.05 -37.1,11.11 -18.71,-32.21 -32.44,50.05z"/>
   <path class="fil2" d="M12154.8 5752.18c247.59,-74.68 -21.58,-137.24 586.6,-90.85 271.94,20.74 303.4,-10.27 345.91,264.33 0.66,4.21 4.37,35.56 4.39,36.09l-1.94 35.21c-4.96,62.22 -293.19,126.99 -373.59,151.01 -118.06,35.27 -291.39,105.59 -379.88,128.03l519.98 -127.4c-106.66,59.29 -100.46,44.92 -202.19,76.6 -12.21,3.81 -21.91,6.59 -32.86,11.01l-42.29 21.15c200.16,21.29 320.49,-45.82 489.67,-91.44 27.35,135.96 52.24,307.18 20.59,453.38 -67.15,52.52 -153.56,45.29 -207.18,91.85 52.33,21.67 201.94,26.33 254.68,-1.63 36.37,-75.95 -5.4,-416.35 -20.72,-518.38 -0.68,-4.53 -2.71,-17.16 -2.85,-21.62 -0.11,-3.32 0.02,-7.22 0.15,-10.56 0.13,-3.39 0.82,-7.2 1.14,-10.66 8.36,-87.82 15.92,-86.1 2.13,-209.69 -8.2,-73.42 -29.39,-182.88 -46.39,-251.41 -15.08,-60.76 -1.77,-83.9 -215.24,-76.21 -94.89,3.41 -205.23,18.23 -298.36,6.81 -110.34,-13.53 -101.28,-42.15 -213.78,13.56l-139.52 73.22c-56.36,31.15 -22.2,-6.55 -48.46,47.55z"/>
   <path class="fil0" d="M5721.74 8145.17c43.4,-97.33 78.43,-45.98 193.79,-72.95l-84.89 -111.64c-119.28,17.86 -118.55,59.01 -212.24,56.59 -87.83,-2.28 -165.7,-25.01 -242.52,-30.66 -96.84,-7.13 -155.97,12.89 -204.7,66.74 -88.91,98.28 -106.56,84.72 -105.48,147.92 80.19,23.64 458.37,28.97 552.08,19.91 18.45,-24.98 4.67,-2.97 16.41,-35.45l23.53 -83.7c66.89,32.37 -7.67,15.74 64.02,43.23z"/>
   <path class="fil1" d="M8766.08 1804.32c41.42,-25.3 47.8,-46.7 101.32,-68.33 118.88,109.09 26.95,225.3 -55.01,230.52 -28.1,-37.51 -21,-50.37 -40.74,-82.79l-25.33 -32.94c28.01,442.95 442.75,205.4 283.59,-126.44 -22.47,59.81 -12.89,26.4 -34.79,41.04 -30.93,-39.18 -50.62,-94.38 -124.38,-86.49 -64.43,6.88 -92.05,56.33 -104.65,125.43z"/>
   <path class="fil1" d="M5984.17 6647.23c77.77,1.81 104.17,-4.37 140.85,-50.49l-103.03 -9.39c17.44,-59.9 33.35,-166.88 79.4,-201.7 62.42,-47.2 165.64,-33.39 214.35,4.43 -5.94,74.71 8.38,45.25 -62.21,78.24 -89.31,41.72 -61.44,139.83 101.98,97.07 11.8,-63.05 13.5,-36.99 -24.12,-67.07 34.99,-18.54 46.97,3.83 28.78,-82.43 -8.17,-38.67 -26.62,-55.62 -52.31,-69.65 -168.11,-91.84 -351.94,5.66 -323.71,300.98z"/>
  </g>
 </g>
</svg>
